<svg width="1074" height="30" viewBox="0 0 1074 30" fill="none" xmlns="http://www.w3.org/2000/svg">
<path fill-rule="evenodd" clip-rule="evenodd" d="M1054.37 6.61612C1054.85 6.12796 1055.65 6.12796 1056.13 6.61612L1063.63 14.1161C1064.12 14.6043 1064.12 15.3957 1063.63 15.8839L1056.13 23.3839C1055.65 23.872 1054.85 23.872 1054.37 23.3839C1053.88 22.8957 1053.88 22.1043 1054.37 21.6161L1060.98 15L1054.37 8.38388C1053.88 7.89573 1053.88 7.10427 1054.37 6.61612Z" fill="#828282"/>
<path fill-rule="evenodd" clip-rule="evenodd" d="M19.6339 6.61612C20.122 7.10427 20.122 7.89573 19.6339 8.38388L13.0178 15L19.6339 21.6161C20.122 22.1043 20.122 22.8957 19.6339 23.3839C19.1457 23.872 18.3543 23.872 17.8661 23.3839L10.3661 15.8839C9.87796 15.3957 9.87796 14.6043 10.3661 14.1161L17.8661 6.61612C18.3543 6.12796 19.1457 6.12796 19.6339 6.61612Z" fill="#828282"/>
</svg>
