<svg width="16" height="16" viewBox="0 0 16 16" fill="none" xmlns="http://www.w3.org/2000/svg">
<g clip-path="url(#clip0_957_633)">
<path fill-rule="evenodd" clip-rule="evenodd" d="M0.666672 8.00002C0.666672 3.94993 3.94992 0.666687 8 0.666687C12.0501 0.666687 15.3333 3.94993 15.3333 8.00002C15.3333 12.0501 12.0501 15.3334 8 15.3334C3.94992 15.3334 0.666672 12.0501 0.666672 8.00002Z" fill="#333333"/>
<path fill-rule="evenodd" clip-rule="evenodd" d="M11.5404 5.362C11.8008 5.62235 11.8008 6.04446 11.5404 6.30481L7.40237 10.6381C7.14202 10.8985 6.71991 10.8985 6.45956 10.6381L4.45956 8.63814C4.19921 8.37779 4.19921 7.95568 4.45956 7.69533C4.71991 7.43498 5.14202 7.43498 5.40237 7.69533L6.93096 9.22393L10.5976 5.362C10.858 5.10165 11.2801 5.10165 11.5404 5.362Z" fill="white"/>
</g>
<defs>
<clipPath id="clip0_957_633">
<rect width="16" height="16" fill="white"/>
</clipPath>
</defs>
</svg>
