<svg width="18" height="16" viewBox="0 0 18 16" fill="none" xmlns="http://www.w3.org/2000/svg">
<path fill-rule="evenodd" clip-rule="evenodd" d="M0.728516 8.00002C0.728516 3.94993 4.31639 0.666687 8.74226 0.666687C13.1681 0.666687 16.756 3.94993 16.756 8.00002C16.756 12.0501 13.1681 15.3334 8.74226 15.3334C4.31639 15.3334 0.728516 12.0501 0.728516 8.00002Z" fill="#333333"/>
<path fill-rule="evenodd" clip-rule="evenodd" d="M12.6112 5.362C12.8957 5.62235 12.8957 6.04446 12.6112 6.30481L8.08918 10.6381C7.80467 10.8985 7.34339 10.8985 7.05889 10.6381L4.87332 8.63814C4.58882 8.37779 4.58882 7.95568 4.87332 7.69533C5.15783 7.43498 5.6191 7.43498 5.90361 7.69533L7.57403 9.22393L11.5809 5.362C11.8654 5.10165 12.3267 5.10165 12.6112 5.362Z" fill="white"/>
</svg>
