<svg width="16" height="16" viewBox="0 0 16 16" fill="none" xmlns="http://www.w3.org/2000/svg">
<g clip-path="url(#clip0_957_585)">
<path fill-rule="evenodd" clip-rule="evenodd" d="M0.666687 7.99996C0.666687 3.94987 3.94993 0.666626 8.00002 0.666626C12.0501 0.666626 15.3334 3.94987 15.3334 7.99996C15.3334 12.05 12.0501 15.3333 8.00002 15.3333C3.94993 15.3333 0.666687 12.05 0.666687 7.99996Z" fill="#333333"/>
<path fill-rule="evenodd" clip-rule="evenodd" d="M11.5405 5.36194C11.8008 5.62229 11.8008 6.0444 11.5405 6.30475L7.40241 10.6381C7.14207 10.8984 6.71996 10.8984 6.45961 10.6381L4.45961 8.63808C4.19926 8.37773 4.19926 7.95562 4.45961 7.69527C4.71995 7.43492 5.14206 7.43492 5.40241 7.69527L6.93101 9.22387L10.5977 5.36194C10.858 5.10159 11.2801 5.10159 11.5405 5.36194Z" fill="white"/>
</g>
<defs>
<clipPath id="clip0_957_585">
<rect width="16" height="16" fill="white"/>
</clipPath>
</defs>
</svg>
