<svg width="16" height="16" viewBox="0 0 16 16" fill="none" xmlns="http://www.w3.org/2000/svg">
<g clip-path="url(#clip0_957_625)">
<path fill-rule="evenodd" clip-rule="evenodd" d="M0.666687 8.00002C0.666687 3.94993 3.94993 0.666687 8.00002 0.666687C12.0501 0.666687 15.3334 3.94993 15.3334 8.00002C15.3334 12.0501 12.0501 15.3334 8.00002 15.3334C3.94993 15.3334 0.666687 12.0501 0.666687 8.00002Z" fill="#333333"/>
<path fill-rule="evenodd" clip-rule="evenodd" d="M11.5405 5.362C11.8008 5.62235 11.8008 6.04446 11.5405 6.30481L7.40241 10.6381C7.14207 10.8985 6.71996 10.8985 6.45961 10.6381L4.45961 8.63814C4.19926 8.37779 4.19926 7.95568 4.45961 7.69533C4.71995 7.43498 5.14206 7.43498 5.40241 7.69533L6.93101 9.22393L10.5977 5.362C10.858 5.10165 11.2801 5.10165 11.5405 5.362Z" fill="white"/>
</g>
<defs>
<clipPath id="clip0_957_625">
<rect width="16" height="16" fill="white"/>
</clipPath>
</defs>
</svg>
