<svg width="16" height="16" viewBox="0 0 16 16" fill="none" xmlns="http://www.w3.org/2000/svg">
<g clip-path="url(#clip0_957_605)">
<path fill-rule="evenodd" clip-rule="evenodd" d="M0.666672 7.99996C0.666672 3.94987 3.94992 0.666626 8 0.666626C12.0501 0.666626 15.3333 3.94987 15.3333 7.99996C15.3333 12.05 12.0501 15.3333 8 15.3333C3.94992 15.3333 0.666672 12.05 0.666672 7.99996Z" fill="#333333"/>
<path fill-rule="evenodd" clip-rule="evenodd" d="M11.5404 5.36194C11.8008 5.62229 11.8008 6.0444 11.5404 6.30475L7.40237 10.6381C7.14202 10.8984 6.71991 10.8984 6.45956 10.6381L4.45956 8.63808C4.19921 8.37773 4.19921 7.95562 4.45956 7.69527C4.71991 7.43492 5.14202 7.43492 5.40237 7.69527L6.93096 9.22387L10.5976 5.36194C10.858 5.10159 11.2801 5.10159 11.5404 5.36194Z" fill="white"/>
</g>
<defs>
<clipPath id="clip0_957_605">
<rect width="16" height="16" fill="white"/>
</clipPath>
</defs>
</svg>
