<svg width="17" height="17" viewBox="0 0 17 17" fill="none" xmlns="http://www.w3.org/2000/svg">
<g clip-path="url(#clip0_957_588)">
<path fill-rule="evenodd" clip-rule="evenodd" d="M0.708313 8.50004C0.708313 4.19682 4.19676 0.708374 8.49998 0.708374C12.8032 0.708374 16.2916 4.19682 16.2916 8.50004C16.2916 12.8033 12.8032 16.2917 8.49998 16.2917C4.19676 16.2917 0.708313 12.8033 0.708313 8.50004Z" fill="#333333"/>
<path fill-rule="evenodd" clip-rule="evenodd" d="M12.2617 5.69714C12.5383 5.97376 12.5383 6.42226 12.2617 6.69888L7.86502 11.303C7.5884 11.5797 7.13991 11.5797 6.86329 11.303L4.73829 9.17805C4.46167 8.90142 4.46167 8.45293 4.73829 8.17631C5.01491 7.89969 5.4634 7.89969 5.74002 8.17631L7.36416 9.80044L11.26 5.69714C11.5366 5.42052 11.9851 5.42052 12.2617 5.69714Z" fill="white"/>
</g>
<defs>
<clipPath id="clip0_957_588">
<rect width="17" height="17" fill="white"/>
</clipPath>
</defs>
</svg>
