<svg width="21" height="21" viewBox="0 0 21 21" fill="none" xmlns="http://www.w3.org/2000/svg">
<g clip-path="url(#clip0_957_885)">
<path d="M12.1832 10.3246L9.82486 9.22417C9.61906 9.12862 9.45001 9.23572 9.45001 9.46357V11.5363C9.45001 11.7641 9.61906 11.8712 9.82486 11.7757L12.1821 10.6753C12.389 10.5787 12.389 10.4212 12.1832 10.3246ZM10.5 0.419922C4.93291 0.419922 0.420013 4.93282 0.420013 10.4999C0.420013 16.067 4.93291 20.5799 10.5 20.5799C16.0671 20.5799 20.58 16.067 20.58 10.4999C20.58 4.93282 16.0671 0.419922 10.5 0.419922ZM10.5 14.5949C5.34031 14.5949 5.25001 14.1298 5.25001 10.4999C5.25001 6.87007 5.34031 6.40492 10.5 6.40492C15.6597 6.40492 15.75 6.87007 15.75 10.4999C15.75 14.1298 15.6597 14.5949 10.5 14.5949Z" fill="#BDBDBD"/>
</g>
<defs>
<clipPath id="clip0_957_885">
<rect width="21" height="21" fill="white"/>
</clipPath>
</defs>
</svg>
