<svg width="14" height="14" viewBox="0 0 14 14" fill="none" xmlns="http://www.w3.org/2000/svg">
<path fill-rule="evenodd" clip-rule="evenodd" d="M6.64186 0.70613C6.85251 0.542293 7.14747 0.542293 7.35812 0.70613L12.6081 4.78946C12.7502 4.89998 12.8333 5.06991 12.8333 5.24992V11.6666C12.8333 12.1307 12.6489 12.5758 12.3208 12.904C11.9926 13.2322 11.5475 13.4166 11.0833 13.4166H2.91666C2.45253 13.4166 2.00741 13.2322 1.67922 12.904C1.35103 12.5758 1.16666 12.1307 1.16666 11.6666V5.24992C1.16666 5.06991 1.24977 4.89998 1.39186 4.78946L6.64186 0.70613ZM2.33332 5.53522V11.6666C2.33332 11.8213 2.39478 11.9697 2.50418 12.0791C2.61357 12.1885 2.76195 12.2499 2.91666 12.2499H11.0833C11.238 12.2499 11.3864 12.1885 11.4958 12.0791C11.6052 11.9697 11.6667 11.8213 11.6667 11.6666V5.53522L6.99999 1.90559L2.33332 5.53522Z" fill="white"/>
<path fill-rule="evenodd" clip-rule="evenodd" d="M4.66666 6.99992C4.66666 6.67775 4.92782 6.41659 5.24999 6.41659H8.74999C9.07216 6.41659 9.33332 6.67775 9.33332 6.99992V12.8333C9.33332 13.1554 9.07216 13.4166 8.74999 13.4166C8.42782 13.4166 8.16666 13.1554 8.16666 12.8333V7.58325H5.83332V12.8333C5.83332 13.1554 5.57216 13.4166 5.24999 13.4166C4.92782 13.4166 4.66666 13.1554 4.66666 12.8333V6.99992Z" fill="white"/>
</svg>
