<svg width="14" height="14" viewBox="0 0 14 14" fill="none" xmlns="http://www.w3.org/2000/svg">
<path fill-rule="evenodd" clip-rule="evenodd" d="M6.64187 0.706221C6.85251 0.542384 7.14748 0.542384 7.35813 0.706221L12.6081 4.78955C12.7502 4.90007 12.8333 5.07 12.8333 5.25001V11.6667C12.8333 12.1308 12.649 12.5759 12.3208 12.9041C11.9926 13.2323 11.5475 13.4167 11.0833 13.4167H2.91666C2.45253 13.4167 2.00742 13.2323 1.67923 12.9041C1.35104 12.5759 1.16666 12.1308 1.16666 11.6667V5.25001C1.16666 5.07 1.24977 4.90007 1.39187 4.78955L6.64187 0.706221ZM2.33333 5.53531V11.6667C2.33333 11.8214 2.39479 11.9698 2.50419 12.0792C2.61358 12.1886 2.76195 12.25 2.91666 12.25H11.0833C11.238 12.25 11.3864 12.1886 11.4958 12.0792C11.6052 11.9698 11.6667 11.8214 11.6667 11.6667V5.53531L7 1.90568L2.33333 5.53531Z" fill="white"/>
<path fill-rule="evenodd" clip-rule="evenodd" d="M4.66666 7.00001C4.66666 6.67784 4.92783 6.41668 5.25 6.41668H8.75C9.07216 6.41668 9.33333 6.67784 9.33333 7.00001V12.8333C9.33333 13.1555 9.07216 13.4167 8.75 13.4167C8.42783 13.4167 8.16666 13.1555 8.16666 12.8333V7.58334H5.83333V12.8333C5.83333 13.1555 5.57216 13.4167 5.25 13.4167C4.92783 13.4167 4.66666 13.1555 4.66666 12.8333V7.00001Z" fill="white"/>
</svg>
