<svg width="14" height="14" viewBox="0 0 14 14" fill="none" xmlns="http://www.w3.org/2000/svg">
<path fill-rule="evenodd" clip-rule="evenodd" d="M7 1.16667C5.76233 1.16667 4.57534 1.65833 3.70017 2.5335C2.825 3.40867 2.33334 4.59566 2.33334 5.83333C2.33334 7.64053 3.50919 9.39415 4.79848 10.7551C5.4312 11.4229 6.06589 11.9697 6.54307 12.3497C6.72065 12.4911 6.87577 12.6089 7 12.7007C7.12424 12.6089 7.27935 12.4911 7.45694 12.3497C7.93412 11.9697 8.56881 11.4229 9.20153 10.7551C10.4908 9.39415 11.6667 7.64053 11.6667 5.83333C11.6667 4.59566 11.175 3.40867 10.2998 2.5335C9.42467 1.65833 8.23768 1.16667 7 1.16667ZM7 13.4167C6.67643 13.902 6.67628 13.9019 6.67611 13.9018L6.67445 13.9007L6.67056 13.8981L6.65719 13.8891C6.64583 13.8813 6.62963 13.8703 6.60891 13.8559C6.56748 13.8272 6.50794 13.7854 6.43288 13.7312C6.28282 13.6228 6.07038 13.4646 5.81632 13.2623C5.30912 12.8584 4.63131 12.275 3.95153 11.5574C2.61582 10.1475 1.16667 8.10947 1.16667 5.83333C1.16667 4.28624 1.78125 2.80251 2.87522 1.70854C3.96918 0.614581 5.45291 0 7 0C8.5471 0 10.0308 0.614581 11.1248 1.70854C12.2188 2.80251 12.8333 4.28624 12.8333 5.83333C12.8333 8.10947 11.3842 10.1475 10.0485 11.5574C9.36869 12.275 8.69089 12.8584 8.18369 13.2623C7.92963 13.4646 7.71719 13.6228 7.56713 13.7312C7.49207 13.7854 7.43253 13.8272 7.3911 13.8559C7.37038 13.8703 7.35418 13.8813 7.34282 13.8891L7.32945 13.8981L7.32556 13.9007L7.32433 13.9015C7.32416 13.9016 7.32358 13.902 7 13.4167ZM7 13.4167L7.32358 13.902C7.12764 14.0327 6.87206 14.0324 6.67611 13.9018L7 13.4167Z" fill="white"/>
<path fill-rule="evenodd" clip-rule="evenodd" d="M7.00001 4.66667C6.35567 4.66667 5.83334 5.189 5.83334 5.83333C5.83334 6.47767 6.35567 7 7.00001 7C7.64434 7 8.16667 6.47767 8.16667 5.83333C8.16667 5.189 7.64434 4.66667 7.00001 4.66667ZM4.66667 5.83333C4.66667 4.54467 5.71134 3.5 7.00001 3.5C8.28867 3.5 9.33334 4.54467 9.33334 5.83333C9.33334 7.122 8.28867 8.16667 7.00001 8.16667C5.71134 8.16667 4.66667 7.122 4.66667 5.83333Z" fill="white"/>
</svg>
