<svg width="14" height="14" viewBox="0 0 14 14" fill="none" xmlns="http://www.w3.org/2000/svg">
<path fill-rule="evenodd" clip-rule="evenodd" d="M6.99999 1.16667C5.76231 1.16667 4.57533 1.65833 3.70016 2.5335C2.82499 3.40867 2.33332 4.59566 2.33332 5.83333C2.33332 7.64053 3.50917 9.39415 4.79846 10.7551C5.43118 11.4229 6.06588 11.9697 6.54305 12.3497C6.72064 12.4911 6.87575 12.6089 6.99999 12.7007C7.12423 12.6089 7.27934 12.4911 7.45693 12.3497C7.9341 11.9697 8.5688 11.4229 9.20152 10.7551C10.4908 9.39415 11.6667 7.64053 11.6667 5.83333C11.6667 4.59566 11.175 3.40867 10.2998 2.5335C9.42465 1.65833 8.23767 1.16667 6.99999 1.16667ZM6.99999 13.4167C6.67641 13.902 6.67627 13.9019 6.6761 13.9018L6.67443 13.9007L6.67054 13.8981L6.65718 13.8891C6.64582 13.8813 6.62962 13.8703 6.6089 13.8559C6.56747 13.8272 6.50793 13.7854 6.43287 13.7312C6.28281 13.6228 6.07037 13.4646 5.8163 13.2623C5.3091 12.8584 4.6313 12.275 3.95152 11.5574C2.61581 10.1475 1.16666 8.10947 1.16666 5.83333C1.16666 4.28624 1.78124 2.80251 2.8752 1.70854C3.96916 0.614581 5.45289 0 6.99999 0C8.54709 0 10.0308 0.614581 11.1248 1.70854C12.2187 2.80251 12.8333 4.28624 12.8333 5.83333C12.8333 8.10947 11.3842 10.1475 10.0485 11.5574C9.36868 12.275 8.69088 12.8584 8.18368 13.2623C7.92961 13.4646 7.71717 13.6228 7.56711 13.7312C7.49205 13.7854 7.43251 13.8272 7.39108 13.8559C7.37036 13.8703 7.35416 13.8813 7.3428 13.8891L7.32944 13.8981L7.32555 13.9007L7.32432 13.9015C7.32415 13.9016 7.32356 13.902 6.99999 13.4167ZM6.99999 13.4167L7.32356 13.902C7.12762 14.0327 6.87204 14.0324 6.6761 13.9018L6.99999 13.4167Z" fill="white"/>
<path fill-rule="evenodd" clip-rule="evenodd" d="M6.99999 4.66667C6.35566 4.66667 5.83332 5.189 5.83332 5.83333C5.83332 6.47767 6.35566 7 6.99999 7C7.64432 7 8.16666 6.47767 8.16666 5.83333C8.16666 5.189 7.64432 4.66667 6.99999 4.66667ZM4.66666 5.83333C4.66666 4.54467 5.71133 3.5 6.99999 3.5C8.28865 3.5 9.33332 4.54467 9.33332 5.83333C9.33332 7.122 8.28865 8.16667 6.99999 8.16667C5.71133 8.16667 4.66666 7.122 4.66666 5.83333Z" fill="white"/>
</svg>
