<svg width="14" height="14" viewBox="0 0 14 14" fill="none" xmlns="http://www.w3.org/2000/svg">
<path fill-rule="evenodd" clip-rule="evenodd" d="M7 1.16667C5.76232 1.16667 4.57534 1.65833 3.70017 2.5335C2.825 3.40867 2.33333 4.59566 2.33333 5.83333C2.33333 7.64053 3.50918 9.39415 4.79847 10.7551C5.43119 11.4229 6.06589 11.9697 6.54306 12.3497C6.72065 12.4911 6.87576 12.6089 7 12.7007C7.12423 12.6089 7.27935 12.4911 7.45694 12.3497C7.93411 11.9697 8.56881 11.4229 9.20152 10.7551C10.4908 9.39415 11.6667 7.64053 11.6667 5.83333C11.6667 4.59566 11.175 3.40867 10.2998 2.5335C9.42466 1.65833 8.23767 1.16667 7 1.16667ZM7 13.4167C6.67642 13.902 6.67627 13.9019 6.67611 13.9018L6.67444 13.9007L6.67055 13.8981L6.65718 13.8891C6.64582 13.8813 6.62962 13.8703 6.60891 13.8559C6.56747 13.8272 6.50793 13.7854 6.43288 13.7312C6.28282 13.6228 6.07037 13.4646 5.81631 13.2623C5.30911 12.8584 4.63131 12.275 3.95152 11.5574C2.61582 10.1475 1.16666 8.10947 1.16666 5.83333C1.16666 4.28624 1.78125 2.80251 2.87521 1.70854C3.96917 0.614581 5.4529 0 7 0C8.54709 0 10.0308 0.614581 11.1248 1.70854C12.2187 2.80251 12.8333 4.28624 12.8333 5.83333C12.8333 8.10947 11.3842 10.1475 10.0485 11.5574C9.36869 12.275 8.69089 12.8584 8.18368 13.2623C7.92962 13.4646 7.71718 13.6228 7.56712 13.7312C7.49206 13.7854 7.43252 13.8272 7.39109 13.8559C7.37037 13.8703 7.35417 13.8813 7.34281 13.8891L7.32944 13.8981L7.32556 13.9007L7.32432 13.9015C7.32416 13.9016 7.32357 13.902 7 13.4167ZM7 13.4167L7.32357 13.902C7.12763 14.0327 6.87205 14.0324 6.67611 13.9018L7 13.4167Z" fill="white"/>
<path fill-rule="evenodd" clip-rule="evenodd" d="M7 4.66667C6.35567 4.66667 5.83333 5.189 5.83333 5.83333C5.83333 6.47767 6.35567 7 7 7C7.64433 7 8.16666 6.47767 8.16666 5.83333C8.16666 5.189 7.64433 4.66667 7 4.66667ZM4.66666 5.83333C4.66666 4.54467 5.71133 3.5 7 3.5C8.28866 3.5 9.33333 4.54467 9.33333 5.83333C9.33333 7.122 8.28866 8.16667 7 8.16667C5.71133 8.16667 4.66666 7.122 4.66666 5.83333Z" fill="white"/>
</svg>
