<svg width="24" height="151" viewBox="0 0 24 151" fill="none" xmlns="http://www.w3.org/2000/svg">
<path d="M12 2C8.13 2 5 5.13 5 9C5 13.17 9.42 18.92 11.24 21.11C11.64 21.59 12.37 21.59 12.77 21.11C14.58 18.92 19 13.17 19 9C19 5.13 15.87 2 12 2ZM12 11.5C11.337 11.5 10.7011 11.2366 10.2322 10.7678C9.76339 10.2989 9.5 9.66304 9.5 9C9.5 8.33696 9.76339 7.70107 10.2322 7.23223C10.7011 6.76339 11.337 6.5 12 6.5C12.663 6.5 13.2989 6.76339 13.7678 7.23223C14.2366 7.70107 14.5 8.33696 14.5 9C14.5 9.66304 14.2366 10.2989 13.7678 10.7678C13.2989 11.2366 12.663 11.5 12 11.5V11.5Z" fill="#BDBDBD"/>
<path d="M18.6667 134.333H5.33335C4.41669 134.333 3.67502 135.083 3.67502 136L3.66669 146C3.66669 146.917 4.41669 147.667 5.33335 147.667H18.6667C19.5834 147.667 20.3334 146.917 20.3334 146V136C20.3334 135.083 19.5834 134.333 18.6667 134.333ZM18.3334 137.875L12.4417 141.558C12.175 141.725 11.825 141.725 11.5584 141.558L5.66669 137.875C5.58313 137.828 5.50995 137.765 5.45159 137.689C5.39324 137.613 5.35091 137.526 5.32717 137.433C5.30343 137.34 5.29877 137.243 5.31348 137.149C5.3282 137.054 5.36197 136.963 5.41276 136.882C5.46354 136.801 5.53029 136.73 5.60896 136.676C5.68763 136.621 5.77658 136.583 5.87043 136.564C5.96429 136.544 6.06109 136.544 6.15498 136.563C6.24888 136.582 6.33791 136.62 6.41669 136.675L12 140.167L17.5834 136.675C17.6621 136.62 17.7512 136.582 17.8451 136.563C17.939 136.544 18.0358 136.544 18.1296 136.564C18.2235 136.583 18.3124 136.621 18.3911 136.676C18.4698 136.73 18.5365 136.801 18.5873 136.882C18.6381 136.963 18.6718 137.054 18.6866 137.149C18.7013 137.243 18.6966 137.34 18.6729 137.433C18.6491 137.526 18.6068 137.613 18.5484 137.689C18.4901 137.765 18.4169 137.828 18.3334 137.875V137.875Z" fill="#BDBDBD"/>
<path d="M19.1666 56.5408H21.0833C21.0833 51.6245 17.3717 47.9167 12.4487 47.9167V49.8334C16.3415 49.8334 19.1666 52.6538 19.1666 56.5408Z" fill="#BDBDBD"/>
<path d="M12.4584 53.6666C14.4737 53.6666 15.3334 54.5262 15.3334 56.5416H17.25C17.25 53.4509 15.549 51.7499 12.4584 51.7499V53.6666ZM15.7378 58.8828C15.5536 58.7154 15.3116 58.6261 15.0629 58.6338C14.8142 58.6415 14.5782 58.7456 14.4047 58.924L12.1114 61.2824C11.5594 61.177 10.4497 60.8311 9.30736 59.6916C8.16503 58.5483 7.81907 57.4357 7.71653 56.8875L10.0731 54.5933C10.2517 54.4199 10.3559 54.1839 10.3636 53.9351C10.3713 53.6863 10.2819 53.4443 10.1143 53.2602L6.57323 49.3665C6.40557 49.1819 6.17254 49.0699 5.92363 49.0544C5.67473 49.0388 5.42956 49.1209 5.24019 49.2832L3.16061 51.0666C2.99492 51.2329 2.89603 51.4542 2.88269 51.6886C2.86832 51.9282 2.59423 57.6034 6.9949 62.006C10.834 65.8441 15.6429 66.1249 16.9673 66.1249C17.1609 66.1249 17.2797 66.1192 17.3114 66.1172C17.5457 66.1041 17.7669 66.0048 17.9324 65.8384L19.7149 63.7578C19.8773 63.5686 19.9595 63.3235 19.9441 63.0746C19.9287 62.8257 19.8169 62.5926 19.6324 62.4248L15.7378 58.8828V58.8828Z" fill="#BDBDBD"/>
</svg>
