<svg width="14" height="14" viewBox="0 0 14 14" fill="none" xmlns="http://www.w3.org/2000/svg">
<g clip-path="url(#clip0_957_521)">
<path d="M11.6667 13.3583C11.6083 13.3583 11.55 13.3583 11.4917 13.3583C9.625 13.125 7.75833 12.4833 6.18333 11.4917C4.725 10.5583 3.44166 9.27498 2.50833 7.81665C1.45833 6.24165 0.816663 4.37498 0.641663 2.50832C0.641663 2.04165 0.758329 1.57498 1.05 1.22498C1.34166 0.874984 1.75 0.64165 2.21666 0.583317C2.275 0.583317 2.33333 0.583317 2.39166 0.583317H4.14166C5.01666 0.583317 5.775 1.22498 5.89166 2.09998C5.95 2.62498 6.06666 3.14998 6.24166 3.61665C6.475 4.25832 6.3 4.95832 5.83333 5.48332L5.425 5.89165C6.125 6.94165 7 7.87498 8.10833 8.57498L8.51666 8.16665C8.98333 7.69998 9.74166 7.52498 10.3833 7.75832C10.85 7.93332 11.375 8.04998 11.9 8.10832C12.775 8.22498 13.4167 8.98332 13.4167 9.85832V11.6083C13.4167 12.075 13.2417 12.5417 12.8917 12.8333C12.5417 13.125 12.1333 13.3583 11.6667 13.3583ZM4.14166 1.74998H2.39166C2.21666 1.74998 2.04166 1.86665 1.925 1.98332C1.86666 2.09998 1.80833 2.21665 1.80833 2.39165C1.98333 4.08332 2.56666 5.71665 3.5 7.17498C4.375 8.51665 5.48333 9.68332 6.825 10.5C8.28333 11.4333 9.91666 12.0167 11.6083 12.1917C11.8417 12.1917 11.9583 12.1333 12.075 12.0167C12.1917 11.9 12.25 11.7833 12.25 11.6083V9.85832C12.25 9.56665 12.0167 9.33332 11.725 9.27498C11.1417 9.21665 10.5583 9.04165 9.975 8.80832C9.74166 8.74998 9.50833 8.74998 9.33333 8.92498L8.575 9.68332C8.4 9.85832 8.10833 9.91665 7.875 9.79998C6.3 8.92498 5.01666 7.64165 4.14166 6.06665C4.08333 5.83332 4.14166 5.54165 4.31666 5.36665L5.075 4.60832C5.19166 4.49165 5.25 4.19998 5.19166 4.02498C4.95833 3.44165 4.84166 2.85832 4.725 2.27498C4.725 1.98332 4.43333 1.74998 4.14166 1.74998ZM11.0833 5.83332C10.7917 5.83332 10.5583 5.65832 10.5 5.36665C10.325 4.43332 9.56666 3.73332 8.63333 3.49998C8.34166 3.44165 8.10833 3.14998 8.16666 2.79998C8.225 2.50832 8.51666 2.27498 8.86666 2.33332C10.2667 2.62498 11.375 3.67498 11.6083 5.07498C11.6667 5.36665 11.4917 5.71665 11.1417 5.77498C11.1417 5.77498 11.1417 5.83332 11.0833 5.83332ZM13.4167 5.77498C13.125 5.77498 12.8917 5.54165 12.8333 5.24998C12.6 3.09165 10.9083 1.39998 8.69166 1.10832C8.4 1.04998 8.16666 0.758317 8.16666 0.46665C8.16666 0.174984 8.51666 -0.0583496 8.80833 -0.0583496C11.55 0.233317 13.65 2.33332 13.9417 5.07498C14 5.36665 13.7667 5.65832 13.4167 5.71665C13.475 5.77498 13.4167 5.77498 13.4167 5.77498Z" fill="white"/>
</g>
<defs>
<clipPath id="clip0_957_521">
<rect width="14" height="14" fill="white"/>
</clipPath>
</defs>
</svg>
