<svg width="16" height="16" viewBox="0 0 16 16" fill="none" xmlns="http://www.w3.org/2000/svg">
<path fill-rule="evenodd" clip-rule="evenodd" d="M7.33333 2.66659C4.756 2.66659 2.66667 4.75592 2.66667 7.33325C2.66667 9.91058 4.756 11.9999 7.33333 11.9999C9.91066 11.9999 12 9.91058 12 7.33325C12 4.75592 9.91066 2.66659 7.33333 2.66659ZM1.33333 7.33325C1.33333 4.01954 4.01962 1.33325 7.33333 1.33325C10.647 1.33325 13.3333 4.01954 13.3333 7.33325C13.3333 10.647 10.647 13.3333 7.33333 13.3333C4.01962 13.3333 1.33333 10.647 1.33333 7.33325Z" fill="black"/>
<path fill-rule="evenodd" clip-rule="evenodd" d="M10.6286 10.6285C10.8889 10.3682 11.3111 10.3682 11.5714 10.6285L14.4714 13.5285C14.7318 13.7889 14.7318 14.211 14.4714 14.4713C14.2111 14.7317 13.7889 14.7317 13.5286 14.4713L10.6286 11.5713C10.3682 11.311 10.3682 10.8889 10.6286 10.6285Z" fill="black"/>
</svg>
