<svg width="48" height="8" viewBox="0 0 48 8" fill="none" xmlns="http://www.w3.org/2000/svg">
<g clip-path="url(#clip0_957_935)">
<path fill-rule="evenodd" clip-rule="evenodd" d="M4 0.333313C4.12687 0.333313 4.24275 0.405337 4.2989 0.519105L5.25142 2.4488L7.38154 2.76015C7.50706 2.7785 7.61129 2.8665 7.65042 2.98717C7.68954 3.10784 7.65678 3.24026 7.56591 3.32877L6.02484 4.82977L6.38854 6.9503C6.40999 7.07536 6.35857 7.20176 6.25591 7.27633C6.15325 7.35091 6.01716 7.36073 5.90485 7.30167L4 6.29993L2.09515 7.30167C1.98285 7.36073 1.84675 7.35091 1.74409 7.27633C1.64143 7.20176 1.59002 7.07536 1.61146 6.9503L1.97516 4.82977L0.43409 3.32877C0.343217 3.24026 0.31046 3.10784 0.349585 2.98717C0.388711 2.8665 0.492938 2.7785 0.618458 2.76015L2.74858 2.4488L3.7011 0.519105C3.75726 0.405337 3.87313 0.333313 4 0.333313ZM4 1.41973L3.2689 2.90085C3.22039 2.99914 3.12666 3.06729 3.01821 3.08314L1.3828 3.32218L2.56591 4.47453C2.64454 4.55111 2.68042 4.66148 2.66187 4.76966L2.38273 6.3972L3.84485 5.62829C3.94198 5.57721 4.05802 5.57721 4.15515 5.62829L5.61727 6.3972L5.33813 4.76966C5.31958 4.66148 5.35547 4.55111 5.43409 4.47453L6.6172 3.32218L4.98179 3.08314C4.87334 3.06729 4.77961 2.99914 4.7311 2.90085L4 1.41973Z" fill="black"/>
</g>
<path d="M2.33333 5L1 3L3 2.66667L4 1L5 2.66667L7 3.33333L5.66667 4.66667L6 7L4 6L2 7L2.33333 5Z" fill="#F2994A"/>
<g clip-path="url(#clip1_957_935)">
<path fill-rule="evenodd" clip-rule="evenodd" d="M14 0.333313C14.1269 0.333313 14.2427 0.405337 14.2989 0.519105L15.2514 2.4488L17.3815 2.76015C17.5071 2.7785 17.6113 2.8665 17.6504 2.98717C17.6895 3.10784 17.6568 3.24026 17.5659 3.32877L16.0248 4.82977L16.3885 6.9503C16.41 7.07536 16.3586 7.20176 16.2559 7.27633C16.1533 7.35091 16.0172 7.36073 15.9048 7.30167L14 6.29993L12.0952 7.30167C11.9828 7.36073 11.8467 7.35091 11.7441 7.27633C11.6414 7.20176 11.59 7.07536 11.6115 6.9503L11.9752 4.82977L10.4341 3.32877C10.3432 3.24026 10.3105 3.10784 10.3496 2.98717C10.3887 2.8665 10.4929 2.7785 10.6185 2.76015L12.7486 2.4488L13.7011 0.519105C13.7573 0.405337 13.8731 0.333313 14 0.333313ZM14 1.41973L13.2689 2.90085C13.2204 2.99914 13.1267 3.06729 13.0182 3.08314L11.3828 3.32218L12.5659 4.47453C12.6445 4.55111 12.6804 4.66148 12.6619 4.76966L12.3827 6.3972L13.8448 5.62829C13.942 5.57721 14.058 5.57721 14.1552 5.62829L15.6173 6.3972L15.3381 4.76966C15.3196 4.66148 15.3555 4.55111 15.4341 4.47453L16.6172 3.32218L14.9818 3.08314C14.8733 3.06729 14.7796 2.99914 14.7311 2.90085L14 1.41973Z" fill="black"/>
</g>
<path d="M12.3333 5L11 3L13 2.66667L14 1L15 2.66667L17 3.33333L15.6667 4.66667L16 7L14 6L12 7L12.3333 5Z" fill="#F2994A"/>
<g clip-path="url(#clip2_957_935)">
<path fill-rule="evenodd" clip-rule="evenodd" d="M24 0.333313C24.1269 0.333313 24.2427 0.405337 24.2989 0.519105L25.2514 2.4488L27.3815 2.76015C27.5071 2.7785 27.6113 2.8665 27.6504 2.98717C27.6895 3.10784 27.6568 3.24026 27.5659 3.32877L26.0248 4.82977L26.3885 6.9503C26.41 7.07536 26.3586 7.20176 26.2559 7.27633C26.1533 7.35091 26.0172 7.36073 25.9048 7.30167L24 6.29993L22.0952 7.30167C21.9828 7.36073 21.8467 7.35091 21.7441 7.27633C21.6414 7.20176 21.59 7.07536 21.6115 6.9503L21.9752 4.82977L20.4341 3.32877C20.3432 3.24026 20.3105 3.10784 20.3496 2.98717C20.3887 2.8665 20.4929 2.7785 20.6185 2.76015L22.7486 2.4488L23.7011 0.519105C23.7573 0.405337 23.8731 0.333313 24 0.333313ZM24 1.41973L23.2689 2.90085C23.2204 2.99914 23.1267 3.06729 23.0182 3.08314L21.3828 3.32218L22.5659 4.47453C22.6445 4.55111 22.6804 4.66148 22.6619 4.76966L22.3827 6.3972L23.8448 5.62829C23.942 5.57721 24.058 5.57721 24.1552 5.62829L25.6173 6.3972L25.3381 4.76966C25.3196 4.66148 25.3555 4.55111 25.4341 4.47453L26.6172 3.32218L24.9818 3.08314C24.8733 3.06729 24.7796 2.99914 24.7311 2.90085L24 1.41973Z" fill="black"/>
</g>
<path d="M22.3333 5L21 3L23 2.66667L24 1L25 2.66667L27 3.33333L25.6667 4.66667L26 7L24 6L22 7L22.3333 5Z" fill="#F2994A"/>
<g clip-path="url(#clip3_957_935)">
<path fill-rule="evenodd" clip-rule="evenodd" d="M34 0.333313C34.1269 0.333313 34.2427 0.405337 34.2989 0.519105L35.2514 2.4488L37.3815 2.76015C37.5071 2.7785 37.6113 2.8665 37.6504 2.98717C37.6895 3.10784 37.6568 3.24026 37.5659 3.32877L36.0248 4.82977L36.3885 6.9503C36.41 7.07536 36.3586 7.20176 36.2559 7.27633C36.1533 7.35091 36.0172 7.36073 35.9048 7.30167L34 6.29993L32.0952 7.30167C31.9828 7.36073 31.8467 7.35091 31.7441 7.27633C31.6414 7.20176 31.59 7.07536 31.6115 6.9503L31.9752 4.82977L30.4341 3.32877C30.3432 3.24026 30.3105 3.10784 30.3496 2.98717C30.3887 2.8665 30.4929 2.7785 30.6185 2.76015L32.7486 2.4488L33.7011 0.519105C33.7573 0.405337 33.8731 0.333313 34 0.333313ZM34 1.41973L33.2689 2.90085C33.2204 2.99914 33.1267 3.06729 33.0182 3.08314L31.3828 3.32218L32.5659 4.47453C32.6445 4.55111 32.6804 4.66148 32.6619 4.76966L32.3827 6.3972L33.8448 5.62829C33.942 5.57721 34.058 5.57721 34.1552 5.62829L35.6173 6.3972L35.3381 4.76966C35.3196 4.66148 35.3555 4.55111 35.4341 4.47453L36.6172 3.32218L34.9818 3.08314C34.8733 3.06729 34.7796 2.99914 34.7311 2.90085L34 1.41973Z" fill="black"/>
</g>
<path d="M32.3333 5L31 3L33 2.66667L34 1L35 2.66667L37 3.33333L35.6667 4.66667L36 7L34 6L32 7L32.3333 5Z" fill="#F2994A"/>
<g clip-path="url(#clip4_957_935)">
<path fill-rule="evenodd" clip-rule="evenodd" d="M44 0.333313C44.1269 0.333313 44.2427 0.405337 44.2989 0.519105L45.2514 2.4488L47.3815 2.76015C47.5071 2.7785 47.6113 2.8665 47.6504 2.98717C47.6895 3.10784 47.6568 3.24026 47.5659 3.32877L46.0248 4.82977L46.3885 6.9503C46.41 7.07536 46.3586 7.20176 46.2559 7.27633C46.1533 7.35091 46.0172 7.36073 45.9049 7.30167L44 6.29993L42.0952 7.30167C41.9828 7.36073 41.8467 7.35091 41.7441 7.27633C41.6414 7.20176 41.59 7.07536 41.6115 6.9503L41.9752 4.82977L40.4341 3.32877C40.3432 3.24026 40.3105 3.10784 40.3496 2.98717C40.3887 2.8665 40.4929 2.7785 40.6185 2.76015L42.7486 2.4488L43.7011 0.519105C43.7573 0.405337 43.8731 0.333313 44 0.333313ZM44 1.41973L43.2689 2.90085C43.2204 2.99914 43.1267 3.06729 43.0182 3.08314L41.3828 3.32218L42.5659 4.47453C42.6445 4.55111 42.6804 4.66148 42.6619 4.76966L42.3827 6.3972L43.8449 5.62829C43.942 5.57721 44.058 5.57721 44.1552 5.62829L45.6173 6.3972L45.3381 4.76966C45.3196 4.66148 45.3555 4.55111 45.4341 4.47453L46.6172 3.32218L44.9818 3.08314C44.8733 3.06729 44.7796 2.99914 44.7311 2.90085L44 1.41973Z" fill="black"/>
</g>
<path d="M42.3333 5L41 3L43 2.66667L44 1L45 2.66667L47 3.33333L45.6667 4.66667L46 7L44 6L42 7L42.3333 5Z" fill="#F2994A"/>
<defs>
<clipPath id="clip0_957_935">
<rect width="8" height="8" fill="white"/>
</clipPath>
<clipPath id="clip1_957_935">
<rect width="8" height="8" fill="white" transform="translate(10)"/>
</clipPath>
<clipPath id="clip2_957_935">
<rect width="8" height="8" fill="white" transform="translate(20)"/>
</clipPath>
<clipPath id="clip3_957_935">
<rect width="8" height="8" fill="white" transform="translate(30)"/>
</clipPath>
<clipPath id="clip4_957_935">
<rect width="8" height="8" fill="white" transform="translate(40)"/>
</clipPath>
</defs>
</svg>
