<svg width="48" height="8" viewBox="0 0 48 8" fill="none" xmlns="http://www.w3.org/2000/svg">
<g clip-path="url(#clip0_957_482)">
<path fill-rule="evenodd" clip-rule="evenodd" d="M3.99999 0.333252C4.12686 0.333252 4.24274 0.405276 4.29889 0.519044L5.25141 2.44874L7.38153 2.76009C7.50705 2.77844 7.61128 2.86644 7.6504 2.98711C7.68953 3.10778 7.65677 3.2402 7.5659 3.3287L6.02483 4.82971L6.38853 6.95024C6.40998 7.0753 6.35856 7.20169 6.2559 7.27627C6.15324 7.35085 6.01714 7.36067 5.90484 7.30161L3.99999 6.29987L2.09514 7.30161C1.98283 7.36067 1.84674 7.35085 1.74408 7.27627C1.64142 7.20169 1.59 7.0753 1.61145 6.95024L1.97515 4.82971L0.434078 3.3287C0.343206 3.2402 0.310448 3.10778 0.349574 2.98711C0.3887 2.86644 0.492927 2.77844 0.618447 2.76009L2.74857 2.44874L3.70109 0.519044C3.75724 0.405276 3.87312 0.333252 3.99999 0.333252ZM3.99999 1.41967L3.26889 2.90079C3.22038 2.99908 3.12665 3.06723 3.0182 3.08308L1.38279 3.32212L2.5659 4.47447C2.64452 4.55105 2.68041 4.66142 2.66186 4.7696L2.38272 6.39714L3.84484 5.62823C3.94197 5.57715 4.05801 5.57715 4.15514 5.62823L5.61726 6.39714L5.33812 4.7696C5.31957 4.66142 5.35545 4.55105 5.43408 4.47447L6.61719 3.32212L4.98178 3.08308C4.87333 3.06723 4.7796 2.99908 4.73109 2.90079L3.99999 1.41967Z" fill="black"/>
</g>
<path d="M2.33333 5L1 3L3 2.66667L4 1L5 2.66667L7 3.33333L5.66667 4.66667L6 7L4 6L2 7L2.33333 5Z" fill="#F2994A"/>
<g clip-path="url(#clip1_957_482)">
<path fill-rule="evenodd" clip-rule="evenodd" d="M14 0.333252C14.1269 0.333252 14.2427 0.405276 14.2989 0.519044L15.2514 2.44874L17.3815 2.76009C17.5071 2.77844 17.6113 2.86644 17.6504 2.98711C17.6895 3.10778 17.6568 3.2402 17.5659 3.3287L16.0248 4.82971L16.3885 6.95024C16.41 7.0753 16.3586 7.20169 16.2559 7.27627C16.1532 7.35085 16.0171 7.36067 15.9048 7.30161L14 6.29987L12.0951 7.30161C11.9828 7.36067 11.8467 7.35085 11.7441 7.27627C11.6414 7.20169 11.59 7.0753 11.6115 6.95024L11.9751 4.82971L10.4341 3.3287C10.3432 3.2402 10.3104 3.10778 10.3496 2.98711C10.3887 2.86644 10.4929 2.77844 10.6184 2.76009L12.7486 2.44874L13.7011 0.519044C13.7572 0.405276 13.8731 0.333252 14 0.333252ZM14 1.41967L13.2689 2.90079C13.2204 2.99908 13.1267 3.06723 13.0182 3.08308L11.3828 3.32212L12.5659 4.47447C12.6445 4.55105 12.6804 4.66142 12.6619 4.7696L12.3827 6.39714L13.8448 5.62823C13.942 5.57715 14.058 5.57715 14.1551 5.62823L15.6173 6.39714L15.3381 4.7696C15.3196 4.66142 15.3555 4.55105 15.4341 4.47447L16.6172 3.32212L14.9818 3.08308C14.8733 3.06723 14.7796 2.99908 14.7311 2.90079L14 1.41967Z" fill="black"/>
</g>
<path d="M12.3333 5L11 3L13 2.66667L14 1L15 2.66667L17 3.33333L15.6667 4.66667L16 7L14 6L12 7L12.3333 5Z" fill="#F2994A"/>
<g clip-path="url(#clip2_957_482)">
<path fill-rule="evenodd" clip-rule="evenodd" d="M24 0.333252C24.1269 0.333252 24.2427 0.405276 24.2989 0.519044L25.2514 2.44874L27.3815 2.76009C27.5071 2.77844 27.6113 2.86644 27.6504 2.98711C27.6895 3.10778 27.6568 3.2402 27.5659 3.3287L26.0248 4.82971L26.3885 6.95024C26.41 7.0753 26.3586 7.20169 26.2559 7.27627C26.1532 7.35085 26.0171 7.36067 25.9048 7.30161L24 6.29987L22.0951 7.30161C21.9828 7.36067 21.8467 7.35085 21.7441 7.27627C21.6414 7.20169 21.59 7.0753 21.6115 6.95024L21.9751 4.82971L20.4341 3.3287C20.3432 3.2402 20.3104 3.10778 20.3496 2.98711C20.3887 2.86644 20.4929 2.77844 20.6184 2.76009L22.7486 2.44874L23.7011 0.519044C23.7572 0.405276 23.8731 0.333252 24 0.333252ZM24 1.41967L23.2689 2.90079C23.2204 2.99908 23.1267 3.06723 23.0182 3.08308L21.3828 3.32212L22.5659 4.47447C22.6445 4.55105 22.6804 4.66142 22.6619 4.7696L22.3827 6.39714L23.8448 5.62823C23.942 5.57715 24.058 5.57715 24.1551 5.62823L25.6173 6.39714L25.3381 4.7696C25.3196 4.66142 25.3555 4.55105 25.4341 4.47447L26.6172 3.32212L24.9818 3.08308C24.8733 3.06723 24.7796 2.99908 24.7311 2.90079L24 1.41967Z" fill="black"/>
</g>
<path d="M22.3333 5L21 3L23 2.66667L24 1L25 2.66667L27 3.33333L25.6667 4.66667L26 7L24 6L22 7L22.3333 5Z" fill="#F2994A"/>
<g clip-path="url(#clip3_957_482)">
<path fill-rule="evenodd" clip-rule="evenodd" d="M34 0.333252C34.1269 0.333252 34.2427 0.405276 34.2989 0.519044L35.2514 2.44874L37.3815 2.76009C37.5071 2.77844 37.6113 2.86644 37.6504 2.98711C37.6895 3.10778 37.6568 3.2402 37.5659 3.3287L36.0248 4.82971L36.3885 6.95024C36.41 7.0753 36.3586 7.20169 36.2559 7.27627C36.1532 7.35085 36.0171 7.36067 35.9048 7.30161L34 6.29987L32.0951 7.30161C31.9828 7.36067 31.8467 7.35085 31.7441 7.27627C31.6414 7.20169 31.59 7.0753 31.6115 6.95024L31.9751 4.82971L30.4341 3.3287C30.3432 3.2402 30.3104 3.10778 30.3496 2.98711C30.3887 2.86644 30.4929 2.77844 30.6184 2.76009L32.7486 2.44874L33.7011 0.519044C33.7572 0.405276 33.8731 0.333252 34 0.333252ZM34 1.41967L33.2689 2.90079C33.2204 2.99908 33.1267 3.06723 33.0182 3.08308L31.3828 3.32212L32.5659 4.47447C32.6445 4.55105 32.6804 4.66142 32.6619 4.7696L32.3827 6.39714L33.8448 5.62823C33.942 5.57715 34.058 5.57715 34.1551 5.62823L35.6173 6.39714L35.3381 4.7696C35.3196 4.66142 35.3555 4.55105 35.4341 4.47447L36.6172 3.32212L34.9818 3.08308C34.8733 3.06723 34.7796 2.99908 34.7311 2.90079L34 1.41967Z" fill="black"/>
</g>
<path d="M32.3333 5L31 3L33 2.66667L34 1L35 2.66667L37 3.33333L35.6667 4.66667L36 7L34 6L32 7L32.3333 5Z" fill="#F2994A"/>
<g clip-path="url(#clip4_957_482)">
<path fill-rule="evenodd" clip-rule="evenodd" d="M44 0.333252C44.1269 0.333252 44.2427 0.405276 44.2989 0.519044L45.2514 2.44874L47.3815 2.76009C47.5071 2.77844 47.6113 2.86644 47.6504 2.98711C47.6895 3.10778 47.6568 3.2402 47.5659 3.3287L46.0248 4.82971L46.3885 6.95024C46.41 7.0753 46.3586 7.20169 46.2559 7.27627C46.1532 7.35085 46.0171 7.36067 45.9048 7.30161L44 6.29987L42.0951 7.30161C41.9828 7.36067 41.8467 7.35085 41.7441 7.27627C41.6414 7.20169 41.59 7.0753 41.6115 6.95024L41.9751 4.82971L40.4341 3.3287C40.3432 3.2402 40.3104 3.10778 40.3496 2.98711C40.3887 2.86644 40.4929 2.77844 40.6184 2.76009L42.7486 2.44874L43.7011 0.519044C43.7572 0.405276 43.8731 0.333252 44 0.333252ZM44 1.41967L43.2689 2.90079C43.2204 2.99908 43.1267 3.06723 43.0182 3.08308L41.3828 3.32212L42.5659 4.47447C42.6445 4.55105 42.6804 4.66142 42.6619 4.7696L42.3827 6.39714L43.8448 5.62823C43.942 5.57715 44.058 5.57715 44.1551 5.62823L45.6173 6.39714L45.3381 4.7696C45.3196 4.66142 45.3555 4.55105 45.4341 4.47447L46.6172 3.32212L44.9818 3.08308C44.8733 3.06723 44.7796 2.99908 44.7311 2.90079L44 1.41967Z" fill="black"/>
</g>
<path d="M42.3333 5L41 3L43 2.66667L44 1L45 2.66667L47 3.33333L45.6667 4.66667L46 7L44 6L42 7L42.3333 5Z" fill="#F2994A"/>
<defs>
<clipPath id="clip0_957_482">
<rect width="8" height="8" fill="white"/>
</clipPath>
<clipPath id="clip1_957_482">
<rect width="8" height="8" fill="white" transform="translate(10)"/>
</clipPath>
<clipPath id="clip2_957_482">
<rect width="8" height="8" fill="white" transform="translate(20)"/>
</clipPath>
<clipPath id="clip3_957_482">
<rect width="8" height="8" fill="white" transform="translate(30)"/>
</clipPath>
<clipPath id="clip4_957_482">
<rect width="8" height="8" fill="white" transform="translate(40)"/>
</clipPath>
</defs>
</svg>
